<svg height="512" viewBox="0 0 512 512" width="512" xmlns="http://www.w3.org/2000/svg"><g><path d="m424 8h-336a8 8 0 0 0 -8 8v480a8 8 0 0 0 8 8h272a8.008 8.008 0 0 0 5.66-2.34l64-64a8.008 8.008 0 0 0 2.34-5.66v-416a8 8 0 0 0 -8-8zm-56 468.69v-36.69h36.69zm48-52.69h-56a8 8 0 0 0 -8 8v56h-256v-464h320z"/><path d="m120 56h80a8 8 0 0 0 0-16h-80a8 8 0 0 0 0 16z"/><path d="m120 88h40a8 8 0 0 0 0-16h-40a8 8 0 0 0 0 16z"/><path d="m208 432h-88a8 8 0 0 0 0 16h88a8 8 0 0 0 0-16z"/><path d="m168 464h-48a8 8 0 0 0 0 16h48a8 8 0 0 0 0-16z"/><path d="m352 96h40a8 8 0 0 0 8-8v-40a8 8 0 0 0 -8-8h-40a8 8 0 0 0 -8 8v40a8 8 0 0 0 8 8zm8-40h24v24h-24z"/><path d="m392 120h-272a8 8 0 0 0 -8 8v240a8 8 0 0 0 8 8h272a8 8 0 0 0 8-8v-240a8 8 0 0 0 -8-8zm-224 240h-40v-24h40zm0-40h-40v-24h40zm0-40h-40v-24h40zm0-40h-40v-24h40zm0-40h-40v-24h40zm0-40h-40v-24h40zm216 200h-200v-24h200zm0-40h-200v-24h200zm0-40h-200v-24h200zm0-40h-200v-24h200zm0-40h-200v-24h200zm0-40h-200v-24h200z"/></g></svg>