<?xml version="1.0" encoding="iso-8859-1"?>
<!-- Generator: Adobe Illustrator 19.0.0, SVG Export Plug-In . SVG Version: 6.00 Build 0)  -->
<svg version="1.1" id="Capa_1" xmlns="http://www.w3.org/2000/svg" xmlns:xlink="http://www.w3.org/1999/xlink" x="0px" y="0px"
	 viewBox="0 0 490.8 490.8" style="enable-background:new 0 0 490.8 490.8;" xml:space="preserve">
<g>
	<path d="M396.55,0H95.15v45.1H8.05v74c0,53.2,43.3,96.4,96.4,96.4h6.7c20.4,40.7,58.7,70.8,104.6,80.1v60.1h-34.6
		c-10.7,0-19.3,8.6-19.3,19.3v25.3h-29.6v90.5h226.3v-90.5h-29.6V375c0-10.7-8.6-19.3-19.3-19.3h-34.6v-60
		c46.2-9.1,84.8-39.4,105.4-80.3h5.9c53.2,0,96.4-43.3,96.4-96.4V45h-86.3V0H396.55z M56.85,119.1V93.9h38.3V148
		c0,6.1,0.4,12.1,1.1,18C73.95,162.1,56.85,142.6,56.85,119.1z M284.65,405v48.5h-78.3V405H284.65z M353.85,148
		c0,59.6-48.5,108-108,108s-108.1-48.5-108.1-108V42.7h216.1V148z M434.05,93.9v25.2c0,23.2-16.6,42.5-38.6,46.7
		c0.7-5.9,1.1-11.8,1.1-17.8V93.9H434.05z M204.25,162l-23.7-23.9l24.8-24.6l23.7,23.9l56.7-56.4l24.6,24.8l-56.7,56.4l-24.8,24.6
		L204.25,162z"/>
</g>
<g>
</g>
<g>
</g>
<g>
</g>
<g>
</g>
<g>
</g>
<g>
</g>
<g>
</g>
<g>
</g>
<g>
</g>
<g>
</g>
<g>
</g>
<g>
</g>
<g>
</g>
<g>
</g>
<g>
</g>
</svg>
